<svg width="66" height="66" viewBox="0 0 66 66" fill="none" xmlns="http://www.w3.org/2000/svg">
<rect x="5" y="5" width="56" height="56" rx="28" fill="#CDD0FF"/>
<rect x="5" y="5" width="56" height="56" rx="28" stroke="#E7E8FF" stroke-width="10"/>
<path d="M41 42C41 40.6044 41 39.9067 40.8278 39.3389C40.44 38.0605 39.4395 37.06 38.1611 36.6722C37.5933 36.5 36.8956 36.5 35.5 36.5H30.5C29.1044 36.5 28.4067 36.5 27.8389 36.6722C26.5605 37.06 25.56 38.0605 25.1722 39.3389C25 39.9067 25 40.6044 25 42M37.5 28.5C37.5 30.9853 35.4853 33 33 33C30.5147 33 28.5 30.9853 28.5 28.5C28.5 26.0147 30.5147 24 33 24C35.4853 24 37.5 26.0147 37.5 28.5Z" stroke="#5E67FF" stroke-width="2" stroke-linecap="round" stroke-linejoin="round"/>
</svg>
